<?xml version="1.0" encoding="utf-8"?>
<!-- Generator: Adobe Illustrator 16.0.0, SVG Export Plug-In . SVG Version: 6.00 Build 0)  -->
<!DOCTYPE svg PUBLIC "-//W3C//DTD SVG 1.1//EN" "http://www.w3.org/Graphics/SVG/1.1/DTD/svg11.dtd">
<svg version="1.1" id="Layer_1" xmlns="http://www.w3.org/2000/svg" xmlns:xlink="http://www.w3.org/1999/xlink" x="0px" y="0px"
	 width="557.242px" height="209.655px" viewBox="0 0 557.242 209.655" enable-background="new 0 0 557.242 209.655"
	 xml:space="preserve">
<path fill="#F6C8C8" d="M117.436,26.776c-0.247,0.247,0.339,0.216,0.37,0.185C118.052,26.715,117.466,26.746,117.436,26.776z"/>
<path fill="#F0A8A8" d="M118.176,26.845c-4.111,0.597-6.371,3.49-8.981,6.413c-3.631,4.065-7.285,8.109-10.862,12.222
	C83.244,62.822,68.024,80.118,52.58,97.145c-4.688,5.169-10.292,10.343-14.224,16.111c-1.449,2.126-0.149,5.272,2.6,5.599
	c1.986,0.236,3.63-2.081,4.764-3.378c3.574-4.087,7.131-8.21,10.791-12.221c15.331-16.802,30.454-33.895,45.319-51.11
	c4.372-5.062,8.916-9.976,13.333-14.998c1.537-1.747,3.71-4.509,6.286-2.898c3.078,1.925,2.283,6.493,2.283,9.563v16.666
	c0,3.345-0.061,6.605,2.439,9.185c2.215,2.283,5.725,3.329,8.672,4.309c5.29,1.761,11.999,3.26,16.644,6.404
	c5.753,3.894,6.711,12.311,13.355,15.369c5.251,2.417,11.183,3.83,16.666,5.658c2.394,0.798,5.77,1.345,7.601,3.195
	c2.38,2.408,0.528,7.561-0.38,10.323c-2.741,8.347-4.894,19.752-13.888,23.538c-4.549,1.915-9.615,2.479-14.444,3.286
	c-6.304,1.056-12.603,2.339-18.889,3.515c-4.11,0.769-9.152,0.719-12.775,2.991c-3.46,2.17-5.535,6.17-7.793,9.447
	c-4.085,5.927-8.112,11.914-12.287,17.776c-2.102,2.952-6.791,8.508-0.499,10.005c2.983,0.711,5.712-5.21,7.059-7.227
	c3.745-5.607,7.59-11.14,11.451-16.666c1.888-2.701,3.566-6.11,6.514-7.813c3.471-2.002,8.865-2.122,12.775-2.787
	c6.677-1.136,13.333-2.405,20-3.608c5.172-0.933,10.363-1.657,14.999-4.312c7.94-4.549,10.172-13.902,12.623-22.034
	c0.897-2.979,2.108-5.802,2.604-8.889c0.611-3.805,1.118-9.037-1.558-12.164c-2.17-2.537-5.633-3.306-8.669-4.318
	c-5.723-1.908-12.422-3.229-17.755-6.051c-5.683-3.007-7.066-11.164-12.253-14.885c-6.836-4.904-16.907-4.452-23.761-9.291
	c-2.968-2.095-2.341-6.234-2.341-9.402V41.591c0-2.741,0.275-5.674-0.524-8.333C127.925,28.616,122.8,26.174,118.176,26.845z"/>
<path fill="#F6CBCC" d="M120.954,26.591c0.693,0.38,0.86,0.417,1.667,0.556C121.927,26.766,121.76,26.73,120.954,26.591z"/>
<path fill="#FCE9E8" d="M118.731,33.258c0.836,0.379,1.286,0.458,2.222,0.556C120.117,33.434,119.668,33.354,118.731,33.258z"/>
<path fill="#F5C8C7" d="M129.472,33.628c-0.031,0.031-0.061,0.618,0.186,0.371C129.688,33.967,129.719,33.381,129.472,33.628z"/>
<path fill="#FCE9E8" d="M129.842,35.48v27.777c0.983-2.341,0.556-5.258,0.556-7.777V42.702
	C130.398,40.335,130.766,37.679,129.842,35.48z"/>
<path fill="#F4BDBC" d="M123.176,36.035v28.333c0.983-2.341,0.556-5.257,0.556-7.777V43.257
	C123.731,40.891,124.099,38.234,123.176,36.035z"/>
<path fill="#F9DFDE" d="M135.213,66.775c-0.247,0.247,0.339,0.216,0.37,0.186C135.83,66.713,135.244,66.745,135.213,66.775z"/>
<path fill="#F9DBDB" d="M141.324,68.998c-0.247,0.247,0.339,0.216,0.37,0.186C141.94,68.936,141.354,68.967,141.324,68.998z"/>
<path fill="#FBE2E2" d="M142.99,69.553c-0.247,0.247,0.339,0.216,0.37,0.185C143.607,69.491,143.021,69.522,142.99,69.553z"/>
<path fill="#F9DFDE" d="M149.101,71.775c-0.247,0.247,0.339,0.216,0.37,0.186C149.718,71.714,149.132,71.745,149.101,71.775z"/>
<path fill="#F6C4C3" d="M130.769,72.331c-0.247,0.247,0.339,0.216,0.37,0.185C131.385,72.269,130.799,72.3,130.769,72.331z"/>
<path fill="#F6C7C6" d="M136.879,74.553c-0.247,0.247,0.339,0.216,0.37,0.186C137.497,74.492,136.91,74.522,136.879,74.553z"/>
<path fill="#F6CAC9" d="M142.99,76.775c-0.247,0.247,0.339,0.216,0.37,0.185C143.607,76.713,143.021,76.744,142.99,76.775z"/>
<path fill="#F6C4C3" d="M144.657,77.331c-0.247,0.247,0.339,0.216,0.37,0.186C145.274,77.269,144.688,77.3,144.657,77.331z"/>
<path fill="#F6C7C6" d="M134.657,93.441c-0.247,0.248,0.339,0.217,0.37,0.186C135.274,93.38,134.688,93.411,134.657,93.441z"/>
<path fill="#F0A8A8" d="M135.398,93.533c-7.861,1.513-5.862,14.218,2.222,12.871C146.234,104.968,144.051,91.867,135.398,93.533z"/>
<path fill="#F9E2E2" d="M138.546,93.441c-0.247,0.248,0.338,0.217,0.37,0.186C139.163,93.38,138.577,93.411,138.546,93.441z"/>
<path fill="#F8CDCD" d="M129.842,98.256v3.333C130.371,100.32,130.371,99.526,129.842,98.256z"/>
<path fill="#F9D9D8" d="M143.175,98.256v2.778C143.637,99.906,143.637,99.384,143.175,98.256z"/>
<path fill="#F6C8C8" d="M196.508,103.811v6.111C197.303,108.028,197.303,105.706,196.508,103.811z"/>
<path fill="#FAE5E5" d="M189.841,104.922v3.89C190.429,107.404,190.429,106.331,189.841,104.922z"/>
<path fill="#F9DEDC" d="M138.546,106.219c-0.247,0.247,0.338,0.216,0.37,0.185C139.163,106.158,138.577,106.188,138.546,106.219z"/>
<path fill="#F6C4C3" d="M189.47,111.959c-0.031,0.031-0.061,0.616,0.186,0.37C189.687,112.299,189.717,111.712,189.47,111.959z"/>
<path fill="#F6CBCC" d="M196.137,111.959c-0.031,0.031-0.062,0.616,0.186,0.37C196.354,112.299,196.384,111.712,196.137,111.959z"/>
<path fill="#F6C7C8" d="M188.915,113.626c-0.031,0.031-0.062,0.617,0.186,0.37C189.132,113.965,189.162,113.379,188.915,113.626z"/>
<path fill="#F7D7D6" d="M36.697,115.292c-0.031,0.031-0.062,0.617,0.185,0.37C36.912,115.632,36.943,115.045,36.697,115.292z"/>
<path fill="#F5C9C8" d="M188.359,115.292c-0.031,0.031-0.062,0.617,0.186,0.37C188.576,115.632,188.606,115.045,188.359,115.292z"/>
<path fill="#F9DDDC" d="M195.026,116.404c-0.031,0.031-0.062,0.617,0.185,0.37C195.243,116.744,195.273,116.157,195.026,116.404z"/>
<path fill="#F6CBCA" d="M187.804,116.959c-0.031,0.031-0.061,0.617,0.186,0.37C188.021,117.298,188.051,116.713,187.804,116.959z"/>
<path fill="#F9DEDC" d="M194.471,118.071c-0.031,0.031-0.062,0.617,0.185,0.37C194.687,118.41,194.717,117.824,194.471,118.071z"/>
<path fill="#F8CDCD" d="M187.248,118.626c-0.03,0.03-0.061,0.617,0.186,0.37C187.465,118.965,187.495,118.379,187.248,118.626z"/>
<path fill="#F7D6D6" d="M41.326,119.552c-0.247,0.246,0.34,0.216,0.371,0.186C41.943,119.49,41.356,119.521,41.326,119.552z"/>
<path fill="#F9DBDA" d="M193.915,119.738c-0.031,0.03-0.062,0.617,0.185,0.37C194.131,120.077,194.162,119.49,193.915,119.738z"/>
<path fill="#F7CECF" d="M186.693,120.292c-0.031,0.031-0.062,0.617,0.186,0.37C186.91,120.631,186.939,120.046,186.693,120.292z"/>
<path fill="#F7D7D6" d="M193.359,121.404c-0.031,0.031-0.062,0.617,0.185,0.37C193.576,121.743,193.606,121.157,193.359,121.404z"/>
<path fill="#F9E2E2" d="M191.137,128.626c-0.031,0.03-0.062,0.616,0.186,0.37C191.354,128.965,191.384,128.379,191.137,128.626z"/>
<path fill="#F7D5D4" d="M168.175,139.922c0.693,0.38,0.86,0.415,1.667,0.555C169.148,140.096,168.982,140.061,168.175,139.922z"/>
<path fill="#FBDDDC" d="M165.212,140.663c-0.247,0.247,0.339,0.217,0.37,0.186C165.829,140.601,165.243,140.631,165.212,140.663z"/>
<path fill="#F7D4D4" d="M162.064,141.033c0.693,0.381,0.86,0.416,1.667,0.556C163.037,141.208,162.871,141.172,162.064,141.033z"/>
<path fill="#F9DDDC" d="M159.102,141.774c-0.247,0.247,0.338,0.216,0.37,0.186C159.718,141.712,159.132,141.743,159.102,141.774z"/>
<path fill="#F7D4D4" d="M155.953,142.144c0.693,0.381,0.859,0.416,1.667,0.556C156.926,142.319,156.76,142.283,155.953,142.144z"/>
<path fill="#F9DCDC" d="M152.62,142.7c0.693,0.381,0.86,0.416,1.667,0.556C153.593,142.875,153.427,142.839,152.62,142.7z"/>
<path fill="#F7D4D3" d="M149.842,143.255c0.694,0.381,0.86,0.416,1.667,0.556C150.815,143.429,150.649,143.394,149.842,143.255z"/>
<path fill="#F9DCDB" d="M146.509,143.811c0.693,0.381,0.86,0.416,1.667,0.556C147.482,143.986,147.315,143.951,146.509,143.811z"/>
<path fill="#F7D3D3" d="M143.731,144.367c0.693,0.381,0.86,0.415,1.667,0.555C144.704,144.541,144.538,144.505,143.731,144.367z"/>
<path fill="#F9DBDA" d="M140.398,144.921c0.693,0.381,0.86,0.417,1.667,0.557C141.371,145.097,141.205,145.061,140.398,144.921z"/>
<path fill="#F7D3D2" d="M137.62,145.478c0.693,0.381,0.86,0.415,1.667,0.555C138.593,145.652,138.427,145.617,137.62,145.478z"/>
<path fill="#FAE2E2" d="M174.656,145.663c-0.247,0.246,0.339,0.216,0.37,0.186C175.273,145.601,174.688,145.631,174.656,145.663z"/>
<path fill="#F9DBDA" d="M134.657,146.218c-0.247,0.247,0.339,0.216,0.37,0.185C135.274,146.157,134.688,146.188,134.657,146.218z"/>
<path fill="#F6CBCC" d="M171.508,146.033c0.694,0.38,0.86,0.416,1.667,0.556C172.481,146.208,172.315,146.172,171.508,146.033z"/>
<path fill="#F7D4D3" d="M168.73,146.588c0.693,0.381,0.86,0.416,1.667,0.556C169.704,146.763,169.538,146.728,168.73,146.588z"/>
<path fill="#F6CCCC" d="M165.397,147.144c0.693,0.38,0.86,0.416,1.667,0.556C166.371,147.32,166.204,147.284,165.397,147.144z"/>
<path fill="#F9D5D4" d="M162.99,147.884c-0.247,0.247,0.339,0.217,0.37,0.187C163.607,147.823,163.021,147.854,162.99,147.884z"/>
<path fill="#F8CFCD" d="M159.286,148.254c0.693,0.381,0.86,0.417,1.667,0.557C160.26,148.43,160.093,148.394,159.286,148.254z"/>
<path fill="#F7D5D5" d="M156.879,148.996c-0.247,0.247,0.338,0.216,0.37,0.186C157.496,148.934,156.91,148.964,156.879,148.996z"/>
<path fill="#F8D0CF" d="M153.175,149.366c0.693,0.381,0.86,0.416,1.667,0.557C154.148,149.542,153.982,149.505,153.175,149.366z"/>
<path fill="#F6C7C8" d="M149.842,149.922c0.694,0.38,0.86,0.415,1.667,0.555C150.815,150.096,150.649,150.061,149.842,149.922z"/>
<path fill="#F8D0CF" d="M147.064,150.477c0.693,0.38,0.86,0.416,1.667,0.556C148.038,150.653,147.871,150.617,147.064,150.477z"/>
<path fill="#F6C9C8" d="M143.731,151.033c0.693,0.381,0.86,0.416,1.667,0.556C144.704,151.208,144.538,151.172,143.731,151.033z"/>
<path fill="#F8D0CF" d="M140.953,151.588c0.693,0.38,0.86,0.416,1.667,0.556C141.927,151.764,141.76,151.728,140.953,151.588z"/>
<path fill="#F6C7C8" d="M137.991,152.329c-0.247,0.247,0.339,0.217,0.37,0.186C138.607,152.267,138.021,152.298,137.991,152.329z"/>
<path fill="#F8D0CE" d="M134.842,152.699c0.693,0.381,0.86,0.417,1.667,0.557C135.815,152.875,135.649,152.838,134.842,152.699z"/>
<path fill="#FBDFDF" d="M132.991,153.44c-0.247,0.247,0.339,0.216,0.37,0.186C133.608,153.378,133.021,153.41,132.991,153.44z"/>
<path fill="#F9D8D7" d="M109.102,186.217c-0.247,0.247,0.339,0.216,0.37,0.186C109.719,186.155,109.133,186.187,109.102,186.217z"/>
<g>
</g>
<g>
	<path fill="#F6A7A6" d="M222.27,142.143v-51.12h21.168c2.207,0,4.235,0.468,6.084,1.404c1.847,0.936,3.443,2.16,4.788,3.672
		c1.343,1.512,2.399,3.229,3.168,5.148c0.767,1.92,1.152,3.864,1.152,5.833c0,2.112-0.36,4.14-1.08,6.084
		c-0.72,1.943-1.728,3.66-3.024,5.147c-1.296,1.488-2.844,2.688-4.644,3.601s-3.805,1.367-6.012,1.367h-16.56v18.864H222.27z
		 M227.31,118.815h16.344c1.487,0,2.844-0.323,4.068-0.972c1.224-0.648,2.268-1.512,3.132-2.592c0.864-1.08,1.536-2.328,2.016-3.744
		c0.479-1.416,0.72-2.892,0.72-4.428c0-1.584-0.277-3.084-0.828-4.5c-0.552-1.416-1.296-2.652-2.232-3.708
		c-0.936-1.055-2.041-1.883-3.312-2.484c-1.272-0.6-2.604-0.9-3.996-0.9H227.31V118.815z"/>
	<path fill="#F6A7A6" d="M282.318,142.863c-2.736,0-5.245-0.516-7.524-1.548c-2.281-1.032-4.261-2.448-5.94-4.248
		c-1.681-1.8-2.988-3.876-3.924-6.228s-1.404-4.871-1.404-7.561c0-2.639,0.468-5.123,1.404-7.451s2.232-4.367,3.888-6.121
		c1.656-1.751,3.636-3.143,5.94-4.175c2.304-1.032,4.799-1.548,7.488-1.548c2.736,0,5.244,0.517,7.524,1.548
		c2.279,1.033,4.236,2.437,5.868,4.212c1.631,1.775,2.904,3.815,3.816,6.119c0.912,2.305,1.368,4.752,1.368,7.344
		c0,0.385,0,0.77,0,1.152c0,0.385-0.025,0.648-0.072,0.792h-32.112c0.144,2.017,0.612,3.877,1.404,5.58
		c0.792,1.704,1.811,3.181,3.06,4.429c1.248,1.248,2.675,2.221,4.284,2.916c1.607,0.695,3.323,1.043,5.148,1.043
		c1.199,0,2.4-0.167,3.6-0.504c1.199-0.335,2.304-0.791,3.312-1.367s1.919-1.284,2.736-2.125c0.816-0.839,1.44-1.764,1.872-2.771
		l4.248,1.152c-0.576,1.393-1.393,2.652-2.448,3.779c-1.057,1.129-2.281,2.113-3.672,2.952c-1.393,0.841-2.928,1.489-4.608,1.944
		C285.894,142.634,284.142,142.863,282.318,142.863z M296.142,121.408c-0.144-2.017-0.612-3.853-1.404-5.509
		c-0.792-1.655-1.8-3.083-3.024-4.284c-1.224-1.199-2.641-2.135-4.248-2.808c-1.609-0.672-3.324-1.009-5.148-1.009
		c-1.825,0-3.553,0.337-5.184,1.009c-1.632,0.673-3.06,1.608-4.284,2.808c-1.224,1.201-2.208,2.641-2.952,4.32
		c-0.745,1.681-1.188,3.504-1.332,5.473H296.142z"/>
	<path fill="#F6A7A6" d="M326.813,140.343c-0.288,0.145-0.708,0.336-1.26,0.576c-0.553,0.24-1.188,0.48-1.908,0.72
		c-0.72,0.241-1.537,0.456-2.448,0.647c-0.913,0.191-1.872,0.289-2.88,0.289c-1.056,0-2.064-0.145-3.024-0.433
		c-0.96-0.288-1.8-0.731-2.52-1.332c-0.72-0.6-1.296-1.355-1.728-2.269c-0.432-0.91-0.648-1.967-0.648-3.168v-26.855h-5.184v-3.888
		h5.184V91.959h4.896v12.672h8.64v3.888h-8.64v25.488c0.096,1.393,0.587,2.412,1.476,3.06c0.888,0.647,1.908,0.972,3.06,0.972
		c1.392,0,2.616-0.227,3.672-0.684c1.055-0.455,1.728-0.779,2.016-0.972L326.813,140.343z"/>
	<path fill="#F6A7A6" d="M364.541,100.599c-1.439-1.631-3.359-2.952-5.76-3.96c-2.4-1.008-5.137-1.512-8.207-1.512
		c-4.514,0-7.801,0.853-9.865,2.556c-2.064,1.704-3.096,4.021-3.096,6.948c0,1.537,0.276,2.796,0.828,3.781
		c0.551,0.984,1.404,1.836,2.557,2.556s2.627,1.345,4.428,1.872c1.799,0.528,3.924,1.057,6.371,1.584
		c2.736,0.576,5.195,1.224,7.381,1.943c2.184,0.721,4.043,1.621,5.58,2.7c1.535,1.08,2.711,2.389,3.527,3.925
		s1.225,3.455,1.225,5.76c0,2.352-0.457,4.392-1.369,6.119c-0.912,1.729-2.184,3.168-3.814,4.32
		c-1.633,1.152-3.576,2.005-5.832,2.557c-2.258,0.551-4.729,0.828-7.416,0.828c-7.92,0-14.761-2.473-20.521-7.416l2.52-4.104
		c0.911,0.96,2.003,1.872,3.276,2.735c1.271,0.865,2.688,1.621,4.248,2.269c1.559,0.647,3.227,1.151,5.004,1.513
		c1.775,0.359,3.646,0.539,5.615,0.539c4.08,0,7.26-0.73,9.541-2.195c2.279-1.464,3.42-3.684,3.42-6.66
		c0-1.584-0.324-2.916-0.973-3.996s-1.619-2.016-2.916-2.809c-1.295-0.791-2.904-1.476-4.824-2.052
		c-1.92-0.575-4.152-1.151-6.695-1.728c-2.689-0.623-5.039-1.271-7.057-1.944c-2.016-0.671-3.72-1.513-5.111-2.521
		c-1.393-1.008-2.437-2.219-3.132-3.635c-0.697-1.416-1.044-3.156-1.044-5.221c0-2.351,0.443-4.452,1.332-6.3
		c0.888-1.848,2.148-3.384,3.78-4.608c1.631-1.224,3.552-2.16,5.759-2.808s4.656-0.972,7.344-0.972c3.408,0,6.445,0.516,9.109,1.548
		c2.664,1.033,5.076,2.484,7.236,4.356L364.541,100.599z"/>
	<path fill="#F6A7A6" d="M378.078,96.783v-7.2h4.896v7.2H378.078z M378.078,142.143v-37.512h4.896v37.512H378.078z"/>
	<path fill="#F6A7A6" d="M412.493,140.343c-0.288,0.145-0.709,0.336-1.261,0.576s-1.188,0.48-1.907,0.72
		c-0.721,0.241-1.537,0.456-2.448,0.647c-0.912,0.191-1.872,0.289-2.88,0.289c-1.057,0-2.064-0.145-3.024-0.433
		c-0.961-0.288-1.8-0.731-2.52-1.332c-0.721-0.6-1.296-1.355-1.729-2.269c-0.432-0.91-0.647-1.967-0.647-3.168v-26.855h-5.185
		v-3.888h5.185V91.959h4.896v12.672h8.64v3.888h-8.64v25.488c0.096,1.393,0.587,2.412,1.477,3.06
		c0.887,0.647,1.907,0.972,3.06,0.972c1.392,0,2.615-0.227,3.672-0.684c1.056-0.455,1.729-0.779,2.016-0.972L412.493,140.343z"/>
	<path fill="#F6A7A6" d="M437.332,140.343c-0.288,0.145-0.709,0.336-1.261,0.576s-1.188,0.48-1.907,0.72
		c-0.721,0.241-1.537,0.456-2.448,0.647c-0.912,0.191-1.872,0.289-2.88,0.289c-1.057,0-2.064-0.145-3.024-0.433
		c-0.961-0.288-1.8-0.731-2.52-1.332c-0.721-0.6-1.296-1.355-1.729-2.269c-0.432-0.91-0.647-1.967-0.647-3.168v-26.855h-5.185
		v-3.888h5.185V91.959h4.896v12.672h8.64v3.888h-8.64v25.488c0.096,1.393,0.587,2.412,1.477,3.06
		c0.887,0.647,1.907,0.972,3.06,0.972c1.392,0,2.615-0.227,3.672-0.684c1.056-0.455,1.729-0.779,2.016-0.972L437.332,140.343z"/>
	<path fill="#F6A7A6" d="M459.435,142.863c-2.735,0-5.244-0.516-7.523-1.548c-2.28-1.032-4.261-2.448-5.94-4.248
		c-1.681-1.8-2.987-3.876-3.924-6.228c-0.936-2.352-1.404-4.871-1.404-7.561c0-2.639,0.469-5.123,1.404-7.451
		c0.937-2.328,2.232-4.367,3.888-6.121c1.656-1.751,3.637-3.143,5.94-4.175c2.304-1.032,4.799-1.548,7.488-1.548
		c2.735,0,5.243,0.517,7.523,1.548c2.279,1.033,4.236,2.437,5.868,4.212c1.631,1.775,2.903,3.815,3.816,6.119
		c0.911,2.305,1.367,4.752,1.367,7.344c0,0.385,0,0.77,0,1.152c0,0.385-0.024,0.648-0.071,0.792h-32.112
		c0.145,2.017,0.612,3.877,1.404,5.58c0.792,1.704,1.811,3.181,3.06,4.429c1.248,1.248,2.676,2.221,4.284,2.916
		c1.607,0.695,3.323,1.043,5.148,1.043c1.199,0,2.399-0.167,3.6-0.504c1.199-0.335,2.304-0.791,3.312-1.367
		c1.009-0.576,1.92-1.284,2.736-2.125c0.815-0.839,1.44-1.764,1.872-2.771l4.248,1.152c-0.576,1.393-1.393,2.652-2.448,3.779
		c-1.056,1.129-2.28,2.113-3.672,2.952c-1.393,0.841-2.929,1.489-4.607,1.944C463.01,142.634,461.259,142.863,459.435,142.863z
		 M473.259,121.408c-0.144-2.017-0.612-3.853-1.404-5.509c-0.792-1.655-1.8-3.083-3.023-4.284c-1.224-1.199-2.641-2.135-4.248-2.808
		c-1.608-0.672-3.324-1.009-5.148-1.009s-3.553,0.337-5.184,1.009c-1.633,0.673-3.06,1.608-4.284,2.808
		c-1.224,1.201-2.208,2.641-2.952,4.32c-0.744,1.681-1.188,3.504-1.332,5.473H473.259z"/>
	<path fill="#F6A7A6" d="M504.939,108.951c-3.313,0.098-6.192,1.008-8.64,2.736c-2.448,1.729-4.177,4.104-5.185,7.128v23.328h-4.896
		v-37.512h4.607v9c1.392-2.879,3.264-5.135,5.616-6.768c2.352-1.631,4.871-2.448,7.56-2.448c0.384,0,0.695,0.025,0.937,0.072
		V108.951z"/>
</g>
<g>
</g>
<g>
</g>
<g>
</g>
<g>
</g>
<g>
</g>
<g>
</g>
</svg>
